<svg xmlns="http://www.w3.org/2000/svg" width="55" height="55" viewBox="0 0 55 55"><defs><clipPath id="4btxa"><path fill="#fff" d="M27.5-.001c15.188 0 27.5 12.313 27.5 27.5C55 42.687 42.688 55 27.5 55S0 42.687 0 27.5C0 12.312 12.312 0 27.5 0z"/></clipPath></defs><g><g><g><path fill="#7b6c63" d="M27.5-.001c15.188 0 27.5 12.313 27.5 27.5C55 42.687 42.688 55 27.5 55S0 42.687 0 27.5C0 12.312 12.312 0 27.5 0z"/><path fill="none" stroke="#fff" stroke-linecap="round" stroke-linejoin="round" stroke-miterlimit="20" stroke-width="6" d="M27.5-.001c15.188 0 27.5 12.313 27.5 27.5C55 42.687 42.688 55 27.5 55S0 42.687 0 27.5C0 12.312 12.312 0 27.5 0z" clip-path="url(&quot;#4btxa&quot;)"/></g><g><g><text dominant-baseline="text-before-edge" style="text-transform:uppercase;line-height:29.99999px" fill="#fff" font-family="'FontAwesome','FontAwesome'" font-size="24" font-style="none" font-weight="400" transform="translate(17 20)"><tspan style="font-kerning:normal" letter-spacing="1.2"></tspan></text></g></g></g></g></svg>