<svg xmlns="http://www.w3.org/2000/svg" width="169" height="214" viewBox="0 0 169 214"><g><g><g><path fill="#7b6c63" d="M84.5-.006c46.594 0 84.5 37.959 84.5 84.616s-37.906 84.615-84.5 84.615S0 131.267 0 84.61 37.906-.006 84.5-.006zm0 165.216c44.382 0 80.49-36.157 80.49-80.6 0-44.442-36.108-80.6-80.49-80.6S4.01 40.169 4.01 84.61c0 44.443 36.108 80.6 80.49 80.6z"/></g><g><g><text dominant-baseline="text-before-edge" style="text-transform:uppercase;line-height:29.99999px" fill="#fefefe" font-family="'OpenSans','OpenSans'" font-size="16" font-style="none" font-weight="400" transform="translate(70 83)"><tspan style="font-kerning:normal" letter-spacing=".8">8</tspan><tspan style="font-kerning:normal" letter-spacing=".8">5%</tspan></text></g></g><g><path fill="#fff" d="M85 9.007c41.907 0 76 34.14 76 76.104s-34.093 76.103-76 76.103S9 127.074 9 85.11C9 43.147 43.093 9.007 85 9.007zm0 148.596c39.918 0 72.393-32.52 72.393-72.492 0-39.973-32.475-72.493-72.393-72.493S12.607 45.138 12.607 85.11c0 39.972 32.475 72.492 72.393 72.492z"/></g><g><g><text dominant-baseline="text-before-edge" style="line-height:29.99999px" fill="#fff" font-family="'Raleway','Raleway'" font-size="16" font-style="none" font-weight="400" transform="translate(50 201)"><tspan style="font-kerning:normal" letter-spacing=".8">Promotion</tspan></text></g></g></g></g></svg>